<?xml version="1.0" encoding="utf-8"?>
<!-- Generator: Adobe Illustrator 26.5.0, SVG Export Plug-In . SVG Version: 6.00 Build 0)  -->
<svg version="1.1" id="Layer_1" xmlns="http://www.w3.org/2000/svg" xmlns:xlink="http://www.w3.org/1999/xlink" x="0px" y="0px"
	 viewBox="0 0 1440 1024" style="enable-background:new 0 0 1440 1024;" xml:space="preserve">
<style type="text/css">
	.st0{fill:#FFEBA6;}
</style>
<g>
	<path class="st0" d="M540.67,832.11c0.51-0.83,0.8-1.39,1.17-1.89c0.74-1.01,0.9-2.02,0.17-3.09c-0.18-0.26-0.34-0.54-0.52-0.81
		c-3.72-5.37-5.65-11.47-6.84-17.78c-1.61-8.52-4.17-16.74-7.16-24.85c-0.33-0.9-0.68-1.79-1-2.7c-3.15-8.91-6.77-17.58-11.88-25.6
		c-1.97-3.09-3.48-6.47-5.05-9.8c-1.21-2.58-2.47-5.15-2.05-8.24c0.15-1.12-0.64-2.42-1.15-3.57c-2.5-5.56-4.29-11.35-5.89-17.22
		c-1.29-4.74-1.32-9.41-0.38-14.23c1.51-7.68,3-15.38,4.02-23.13c1.3-9.83,1.57-19.75,1.53-29.67c0-0.63,0.02-1.32-0.19-1.89
		c-1.43-3.9-2.91-7.78-4.38-11.67c-0.39-1.03-1.16-1.5-2.22-1.46c-8.19,0.32-16.26-0.88-24.35-1.89
		c-5.47-0.68-10.84,0.27-16.04,2.09c-1.96,0.69-3.89,1.47-5.84,2.16c-2.73,0.96-5.53,1.67-8.44,1.62
		c-11.61-0.19-22.88,1.84-34.12,4.56c-10.4,2.51-20.94,4.46-31.38,6.83c-4.35,0.99-8.61,2.41-12.89,3.67
		c-2.27,0.67-3.83,1.94-4.52,4.43c-1.02,3.68-3.43,6.6-6.54,8.64c-4.31,2.83-5.82,6.93-6.48,11.69c-0.67,4.78-0.61,9.53-0.33,14.34
		c0.53,9.25,0.74,18.52,1.04,27.79c0.14,4.17,0.62,8.27,1.78,12.3c0.48,1.66,0.72,3.48,0.63,5.21c-0.18,3.8-1.04,7.32-5.25,8.83
		c-0.41,0.15-0.9,1.04-0.8,1.44c0.65,2.43,1.38,4.68,3.21,6.75c4.79,5.4,8.75,11.42,10.94,18.42c0.51,1.63,0.54,3.51,2.45,4.46
		c0.36,0.18,0.59,1.2,0.44,1.7c-0.87,3.05-1.9,5.88-4.11,8.46c-4.22,4.91-9.08,8.94-14.31,12.68c-4.55,3.25-8.86,6.83-13.28,10.27
		c-0.5,0.39-0.98,0.82-1.49,1.21c-2.75,2.08-4.14,1.83-5.55-1.17c-0.53-1.14-0.99-2.4-1.11-3.64c-1.05-11.33-3.59-22.4-5.52-33.58
		c-0.71-4.11-1.05-8.24,0.46-12.31c0.38-1.01,0.36-2.21,0.34-3.32c-0.04-2.88-0.18-5.75-0.28-8.63c-0.07-1.94-0.48-3.73-1.52-5.46
		c-0.71-1.18-1.13-2.67-1.21-4.05c-0.44-7.02-0.93-14.04-1.02-21.07c-0.13-10.71-0.16-21.43,0.2-32.14
		c0.2-6.05,1.24-12.07,1.91-18.1c0.44-3.97,0.91-7.93,1.38-11.89c0.09-0.79-0.03-1.73,0.36-2.33c2.48-3.83,3.16-8.35,4.97-12.43
		c0.95-2.15,1.46-4.52,3.71-5.99c0.8-0.52,1.06-1.91,1.51-2.92c1.37-3.06,2.68-6.15,4.07-9.2c1.69-3.7,4.44-6.18,8.43-7.24
		c9.45-2.51,18.33-6.64,27.38-10.21c11.61-4.58,22.54-10.56,32.96-17.52c5.34-3.56,8.21-8.79,11.3-13.97
		c0.31-0.52,0.14-1.55-0.16-2.19c-0.93-2.03-2.06-3.97-3.06-5.98c-4.72-9.5-7.85-19.56-10.46-29.8c-0.16-0.62-0.21-1.29-0.51-1.83
		c-0.12-0.22-1-0.32-1.16-0.14c-1.08,1.17-2.13,2.38-3.04,3.68c-2.38,3.41-4.68,6.87-7.01,10.32c-2.97,4.39-6.37,8.4-10.22,12.05
		c-5.23,4.95-11.4,8.14-18.26,10.13c-3.45,1.01-6.96,1.19-10.45,0.51c-5.18-1-10.3-2.25-15.47-3.31c-3.09-0.63-5.58-2.14-7.83-4.34
		c-3.62-3.54-6.24-7.63-7.94-12.4c-1.52-4.24-2.68-8.54-3.19-13.01c-0.18-1.63-0.58-2.75-2.34-3.67c-1.53-0.81-2.74-2.7-3.51-4.39
		c-2.94-6.42-4.79-13.21-6.02-20.16c-0.22-1.23-0.26-2.59,0-3.8c0.79-3.64,0.73-3.55-0.82-5.94c-1.21-1.87-3.02-2.59-4.88-2.45
		c-2.71,0.2-5.4-0.01-8.08,0.14c-2.24,0.13-4.47,0.8-6.25,2.23c-1.61,1.3-4.32,1-5.12,3.22c-0.64,1.77-0.74,3.74-1.05,5.63
		c-0.52,3.15-0.98,6.32-1.55,9.46c-0.6,3.27-2.36,5.34-5.79,6.19c-5.26,1.3-10.38,3.22-15.67,4.4c-4.6,1.03-9.23,0.26-13.67-1.34
		c-5.36-1.93-9.99-5.03-13.87-9.18c-4.56-4.88-5.91-10.9-5.57-17.32c0.42-7.98,1.19-15.94,2.77-23.79
		c0.75-3.76,1.26-7.57,2.03-11.32c0.26-1.28-0.11-2.1-0.89-3.01c-1.58-1.83-2.81-3.87-3.51-6.21c-1.12-3.71-0.07-6.57,3.14-8.06
		c2.02-0.94,4.02-1.96,6.1-2.75c1.02-0.39,1.57-0.9,1.82-1.93c2.98-12.26,6.93-24.27,8.91-36.78c0.49-3.12,0.04-6.04-0.89-8.96
		c-0.34-1.06-0.8-2.09-1.19-3.14c-0.67-1.76-0.52-3.45,0.42-5.07c5.18-8.9,8.36-18.64,11.9-28.23c0.44-1.18,1.18-2.57,0.9-3.62
		c-0.6-2.26,0.47-3.67,1.71-5.16c0.2-0.25,0.38-0.52,0.62-0.73c2.01-1.81,4.41-3.34,5.95-5.48c1.53-2.13,1.76-5.05,3.47-7.25
		c3.95-5.12,5.46-11.17,6.1-17.43c0.54-5.25,0.69-10.52-1.19-15.65c-1.45-3.95,0-5.83,4.53-4.87c5.1,1.08,8.97,4.18,10.98,9.14
		c1.51,3.71,2.54,7.56,2.54,11.64c0,2.07,0.29,4.14,0.48,6.2c0.11,1.16,0.65,2.08,1.58,2.84c1.36,1.12,1.71,1.22,3.35,0.19
		c3.39-2.12,6.72-4.34,10.16-6.37c1.62-0.95,2.7-2.21,3.34-3.91c1.63-4.34,3.22-8.69,4.83-13.03c0.5-1.35,0.92-2.73,1.51-4.03
		c0.42-0.93,1.28-1.42,2.32-1.41c1.13,0,1.79,0.71,2.03,1.69c0.62,2.48,1.17,4.97,1.68,7.47c0.22,1.09,0.22,2.23,0.39,3.33
		c0.28,1.79,0.92,2.26,2.6,1.59c7.19-2.86,14.67-4.43,22.34-5.2c3.02-0.3,6.03-0.73,9.06-0.97c8.76-0.68,17.51-1.7,26.33-1.27
		c17.15,0.84,33.98,3.61,50.63,7.74c8.74,2.17,17.12,5.24,25.25,8.97c14.52,6.66,28.99,13.45,43.38,20.39
		c7.34,3.54,14.43,7.59,21.7,11.26c3.98,2.01,8.06,3.87,12.2,5.54c5.06,2.04,9.88,4.53,14.55,7.3c3.59,2.12,7.28,3.99,11.28,5.24
		c1.06,0.33,2.13,0.74,3.08,1.32c2.77,1.68,5.83,1.45,8.85,1.46c1.3,0,2.51-0.47,3.37-1.57c0.29-0.38,0.62-0.74,0.9-1.12
		c4.11-5.68,9.77-8.49,16.66-9.23c4.6-0.49,9.22-1.04,13.55-2.85c0.84-0.35,1.64-0.82,2.83-1.42c-0.9-0.9-1.62-1.49-2.17-2.21
		c-1.08-1.37-2.3-2.7-3.04-4.25c-1.66-3.46-0.92-7.19,2.71-9.6c3.68-2.45,7.49-3.58,11.8-2.5c2.94,0.74,5.87,1.56,8.71,2.59
		c1.47,0.53,2.86,1.45,4.08,2.44c1.77,1.43,2.44,3.47,1.6,5.61c-0.93,2.37-2.05,4.69-3.35,6.87c-1.76,2.95-2.77,6.1-3.13,9.48
		c-0.18,1.74,1.6,3.25,3.09,2.47c3.67-1.9,7.91-2.62,11.13-5.49c0.93-0.83,2.18-1.32,3.29-1.96c3.73-2.16,7.45-4.34,11.2-6.47
		c1.66-0.94,3.38-1.8,5.09-2.66c3.95-2,7.12-4.78,9.36-8.67c1.09-1.89,1.53-3.79,1.44-5.93c-0.17-4.31-0.24-8.63-0.32-12.94
		c-0.12-6.63,1.57-13,3.09-19.36c1.79-7.51,2.61-15.11,2.81-22.8c0.11-4.32,0.41-8.61,1.44-12.84c1.04-4.26,2.74-8.17,5.59-11.55
		c0.52-0.61,0.96-1.28,1.49-1.88c0.95-1.07,1.28-2.17,0.41-3.46c-0.27-0.39-0.41-0.87-0.62-1.3c-1.8-3.73-1.95-7.37,0.54-10.89
		c0.26-0.37,0.38-0.85,0.62-1.41c-2.43-1.75-5.02-2.72-7.98-2.64c-1.76,0.05-3.59-0.24-5.26,0.17c-2.6,0.64-5.07,0.04-7.56-0.29
		c-3.48-0.47-4.66-1.79-5.03-5.28c-0.52-4.94-1.54-9.76-3.14-14.47c-0.5-1.48-1.22-2.53-2.66-3.13c-0.58-0.24-1.13-0.61-1.63-0.99
		c-1.21-0.92-1.48-1.81-0.96-3.38c1.15-3.49,2.37-6.96,3.52-10.45c0.63-1.9,1.87-3.77-0.55-5.56c-0.62-0.45-0.37-2.1-0.5-3.2
		c-0.2-1.73-0.71-2.21-2.48-2.04c-3.34,0.33-6.67,0.81-10.01,1.08c-3.66,0.3-7.34,0.58-11,0.59c-1.71,0-3.49-0.45-5.11-1.05
		c-2.66-0.97-3.95-3.28-4.32-5.9c-0.26-1.88,0.12-3.78,2.02-5.03c3.34-2.2,6.58-4.53,9.87-6.8c1.82-1.26,3.86-2.23,4.54-4.68
		c0.44-1.58,2.02-1.98,3.43-2.28c4.83-1.02,9.6-2.48,14.64-2.13c1.38,0.1,2.26-0.27,2.92-1.77c1.11-2.51,2.02-5.03,2.38-7.74
		c0.09-0.63,0.1-1.28,0.24-1.9c1.2-5.5,3.21-6.45,7.33-6.76c2.99-0.23,6.18-0.25,9.03,0.55c8.84,2.48,17.91,3.21,26.96,4.24
		c4.61,0.52,9.23,1.01,13.78,1.86c8.5,1.58,9.39,3.75,9.65,11.09c0.16,4.33-0.32,8.65-1.88,12.73c-1.01,2.66-0.36,4.54,1.75,6.3
		c3.82,3.19,7.82,6.02,12.36,8.16c3.74,1.76,7.27,4,10.83,6.12c1.22,0.73,2.32,1.71,3.36,2.69c1.84,1.75,2,2.84,0.97,5.12
		c-1,2.24-2.56,3.29-4.91,2.89c-2.35-0.4-4.74-0.9-6.95-1.78c-3.36-1.34-6.81-1.69-10.34-1.69c-0.95,0-1.93,0.1-2.85,0.32
		c-1.56,0.36-2.29,1.74-1.75,3.33c0.3,0.89,0.63,1.99,1.31,2.5c3.82,2.86,5.99,6.96,8.22,10.93c1.45,2.58,3.24,4.66,5.56,6.43
		c5.46,4.18,10.82,8.48,16.27,12.68c2.94,2.26,5.51,4.85,7.73,7.82c1.43,1.92,3.07,3.69,4.5,5.61c4.82,6.47,8.35,13.63,10.52,21.38
		c2.16,7.7,3.52,15.56,4.11,23.57c0.53,7.17,1.46,14.31,2.23,21.46c0.91,8.45,0.98,16.92,0.72,25.39c-0.1,3.32-0.77,6.67-1.57,9.91
		c-1.94,7.78-4.82,15.24-8.38,22.41c-2.78,5.61-5.01,11.4-6.44,17.5c-0.58,2.48-1.4,4.92-2.33,7.29
		c-3.16,8.03-6.41,16.02-9.63,24.03c-0.12,0.3-0.29,0.58-0.39,0.88c-0.43,1.31,0.02,2.27,1.26,2.62c0.46,0.13,0.94,0.2,1.41,0.23
		c2.65,0.19,4.41,1.67,5.72,3.84c0.17,0.27,0.3,0.58,0.5,0.82c3.43,4.04,2.94,8.2,0.36,12.41c-0.67,1.09-1.41,2.13-2.14,3.18
		c-1.23,1.74-1.35,2.65-0.13,4.22c1.57,2.02,3.41,3.75,5.78,4.9c2.44,1.18,4.83,2.49,7.16,3.88c2.62,1.56,5.26,2.98,8.24,3.79
		c2.48,0.68,4.7,1.96,6.73,3.57c2.13,1.69,3.42,3.77,3.5,6.52c0.02,0.64,0.03,1.28,0.05,1.92c0.06,1.86,1.06,2.95,2.81,3.39
		c1.24,0.31,2.49,0.56,3.73,0.84c3.13,0.69,6.27,1.37,8.9,3.36c1.22,0.92,2.58,1.17,4.05,1.25c12.51,0.65,22.99,6.08,32.55,13.76
		c6.76,5.43,12.7,11.68,18.58,18.01c3.59,3.87,7.19,7.72,10.77,11.6c6.97,7.55,12.81,15.96,18.43,24.52
		c1.83,2.78,3.37,5.83,4.55,8.94c4.2,11.07,7.94,22.31,9.92,34.01c1.17,6.92,1.86,13.93,2.55,20.93c0.46,4.61,0.6,9.25,0.77,13.88
		c0.25,6.73-0.05,13.45-1.86,19.98c-0.93,3.35-1.72,6.84-4.66,9.26c-0.52,0.43-0.84,1.36-0.89,2.08c-0.33,4.93-0.56,9.86-0.85,15.21
		c0.96-0.37,1.63-0.6,2.27-0.89c4.34-1.96,6.05-1.5,8.96,2.41c1.62,2.18,3.17,4.43,4.92,6.5c2.01,2.37,4.51,4.1,7.69,4.49
		c1.24,0.15,2.54,0.12,3.77-0.07c2.02-0.33,3.84-1.49,6.04-1.16c1.17,0.18,2.06-0.72,2.78-1.63c1.68-2.13,3.26-4.36,5.06-6.39
		c2.11-2.38,4.2-4.89,6.69-6.83c5.39-4.2,11.47-4.45,17.69-2.03c3.46,1.35,5.87,3.85,6.94,7.46c0.72,2.45,1.45,4.91,1.88,7.42
		c1.05,6.21,3.63,11.85,6.2,17.51c0.59,1.29,0.94,2.69,1.54,3.98c1,2.17,1.86,4.47,3.23,6.39c1.85,2.59,4.25,3.83,7.85,3.12
		c7.25-1.42,14.24-3.61,21.08-6.27c5.19-2.02,10.04-0.74,14.97,0.57c0.88,0.23,1.23,1,0.97,1.89c-0.58,1.96,0.51,3.06,2.02,3.84
		c1.27,0.65,2.61,1.23,3.98,1.63c3.21,0.96,6.45,1.86,9.71,2.64c1.22,0.29,2.54,0.37,3.79,0.25c4.09-0.37,7.52,1.12,10.67,3.51
		c0.51,0.39,1.04,0.76,1.48,1.23c3.72,3.95,7.5,7.83,11.62,11.38c2.33,2.01,3.3,4.65,2.77,7.76c-0.11,0.63-0.3,1.3-0.17,1.9
		c0.32,1.54,0.2,2.3-1.53,3.29c-2.35,1.33-3.59,3.87-3.06,6.95c0.35,2.04,0.69,2.6,2.64,2.41c1.27-0.12,2.52-0.46,3.79-0.57
		c2.98-0.27,5.31,0.85,6.83,3.47c0.4,0.69,0.75,1.41,1.07,2.15c2.99,6.81,7.16,12.78,12.6,17.85c0.53,0.5,1.31,0.9,2.03,1
		c5.7,0.78,11.35,1.58,17.17,0.5c3.75-0.69,7.64-0.56,11.46,0.19c4.69,0.91,8.74,2.99,12.13,6.35c0.34,0.34,0.73,0.64,1.01,1.02
		c3.45,4.78,8.41,6.69,14,7.32c4.77,0.53,8.61,2.77,12.54,5.45c4.64,3.16,8.61,7.09,13.15,10.31c2.47,1.75,5.11,3.26,7.67,4.87
		c0.94,0.59,1.98,1.08,2.79,1.81c7.73,6.95,15.26,14.12,22.14,21.93c0.31,0.35,0.51,0.8,0.86,1.36c-2.4,3.59-5.61,6.45-8.86,9.24
		c-0.67,0.58-1.71,0.82-2.62,1.04c-13.82,3.37-27.63,6.77-41.78,8.49c-3.65,0.44-7.24,1.31-10.88,1.77
		c-7.77,0.98-15.55,1.84-23.33,2.72c-0.95,0.11-1.92,0.12-2.87,0.06c-12.92-0.79-25.84-1.66-38.77-2.39
		c-11.17-0.63-22.35-1.16-33.54-1.61c-10.54-0.42-21.09-0.66-31.64-0.99c-14.38-0.45-28.76-0.94-43.14-1.37
		c-4.16-0.12-8.32-0.24-12.47-0.1c-5.79,0.19-11.5-0.51-17.2-1.31c-6.33-0.88-12.65-1.91-18.96-2.94
		c-10.35-1.69-20.67-1.59-31.04-0.06c-9.35,1.38-18.55,3.37-27.69,5.68c-2.81,0.71-5.57,0.95-8.51,0.81
		c-9.58-0.47-19.18-0.57-28.76,0.2c-5.9,0.47-11.8,0.84-17.69,1.4c-4.02,0.38-7.98,0.06-11.96-0.34c-3.34-0.34-6.69-0.67-10.04-0.72
		c-12.33-0.21-24.61,0.31-36.87,1.76c-10.5,1.24-21.04,1.47-31.61,0.58c-6.37-0.54-12.77-0.83-19.16-1.04
		c-11.39-0.37-22.55-2.43-33.72-4.44c-8.65-1.55-17.34-2.92-26.04-4.17c-2.5-0.36-5.11-0.13-7.66-0.01
		c-11.18,0.53-22.36,1.08-33.53,1.69c-7.82,0.43-15.63,1.04-23.46,1.44c-11.66,0.6-23.32,1.14-34.98,1.59
		c-8.47,0.32-16.94,0.48-25.41,0.62c-3.01,0.05-6.05,0.25-8.87-1.42c-0.86-0.51-2.19-0.35-3.29-0.29
		c-6.55,0.36-13.09,0.75-19.63,1.19c-12.12,0.8-24.24,1.63-36.36,2.49c-1.87,0.13-3.73,0.75-5.59,0.74
		c-1.89-0.01-3.77-0.59-5.67-0.79c-8.75-0.89-17.5-1.67-26.24-2.62c-9.59-1.04-18.84-3.52-27.79-7.09
		c-3.71-1.48-7.44-2.93-11.06-4.61c-2.96-1.38-5.93-2.22-9.24-2.01c-2.81,0.18-5.42-0.53-7.38-2.72c-0.84-0.94-1.65-1.96-2.2-3.07
		c-1.06-2.15-2.46-3.64-5.01-3.91c-1.25-0.13-2.55-0.5-3.66-1.08c-1.24-0.64-2.52-1.46-3.38-2.52c-1.9-2.33-1.58-3.79,0.94-5.53
		c1.58-1.09,3.24-2.05,4.86-3.08c1.6-1.02,3.33-1.8,3.97-3.92c0.22-0.73,1.31-1.53,2.13-1.71c9.14-1.95,17.22-6.83,26.11-9.44
		c3.52-1.03,7.1-1.92,10.7-2.6c6.21-1.17,11.75,0.17,16.22,4.92c0.53,0.57,1.15,1.28,1.84,1.43c2.68,0.55,4.4,2.51,6.4,4.07
		c1.26,0.98,2.44,2.08,3.76,2.98c8.17,5.61,16.45,11.07,24.53,16.81c3.94,2.8,8.32,3.96,12.91,4.72c0.75,0.12,1.92,0.23,2.26-0.18
		c0.8-0.99-0.44-1.64-0.94-2.32c-1.14-1.53-2.32-3.05-3.65-4.4c-2.39-2.41-4.41-5.03-5.98-8.05c-0.8-1.54-1.89-2.95-3.02-4.28
		c-2.37-2.81-4.89-5.49-7.27-8.29c-3.95-4.64-7.45-9.59-10.25-15.03c-0.65-1.26-1.48-2.47-2.38-3.57
		c-3.33-4.1-6.71-8.15-10.08-12.21c-2.97-3.57-5.51-7.43-7.6-11.58c-0.57-1.13-1.01-2.36-1.26-3.6c-0.44-2.19,0.5-3.79,2.65-4.39
		c2.31-0.64,4.66-1.13,7.02-1.54c0.71-0.12,1.56,0.14,2.27,0.42c2.7,1.09,5.05,2.72,6.91,4.98c1.25,1.53,2.82,2.52,4.58,3.37
		c8.52,4.14,16.64,8.91,23.58,15.45c1.15,1.09,2.43,1.41,3.92,1.35c3.04-0.11,6.07-0.19,9.11-0.25c5.55-0.12,10.85,1.05,15.7,3.71
		c4.19,2.3,8.35,4.76,12.19,7.58c4.24,3.12,8.13,6.72,12.14,10.14c1.7,1.45,3.32,3,5,4.49c1.95,1.73,4.15,2.89,6.8,3.27
		c3.06,0.43,5.72,1.96,8.33,3.53C537.31,829.93,538.77,830.9,540.67,832.11z M665.58,771.56c-0.79-0.64-1.09-1-1.48-1.18
		c-8.33-3.69-16.71-7.22-25.35-10.14c-5.29-1.79-10.52-3.77-15.71-5.83c-4.34-1.72-8.26-4.21-11.74-7.33
		c-3.9-3.5-6.71-7.72-7.85-12.88c-0.88-3.99,0.37-6.13,4.13-7.37c0.9-0.3,1.85-0.45,2.75-0.76c0.19-0.07,0.43-0.68,0.36-0.75
		c-0.89-0.89-1.74-1.89-2.82-2.48c-0.43-0.24-1.42,0.4-2.09,0.74c-1.56,0.8-3.01,1.86-4.63,2.48c-4.62,1.78-8.99,1.54-13.12-1.61
		c-5.37-4.09-9.18-9.3-11.83-15.42c-1.93-4.44-1.4-8.75,1.02-12.86c0.65-1.09,1.48-2.08,2.24-3.1c1.12-1.5,3.63-2.53,3.21-4.44
		c-0.37-1.64-2.29-2.94-3.55-4.37c-0.63-0.72-1.4-1.34-1.95-2.12c-1.2-1.69-2.46-3.37-3.39-5.2c-1.99-3.92-1.37-6.92,1.94-9.86
		c1.19-1.05,2.5-2.04,3.91-2.75c2.42-1.22,4.96-2.19,7.44-3.28c0.79-0.35,1.57-0.75,3.21-1.54c-1.95,0-2.91-0.09-3.84,0.02
		c-3.81,0.45-7.61,0.93-11.41,1.45c-1.15,0.16-2.45,0.37-3.06-0.72c-1.37-2.47-3.03-1.64-4.83-0.74c-1.57,0.79-3.19,1.48-4.76,2.26
		c-1.84,0.9-6.03,4.32-7.24,5.95c-3.91,5.28-7.57,10.71-10.44,16.63c-1.25,2.57-2.56,5.24-3.1,8.02c-1.83,9.4-3.5,18.85-4.13,28.44
		c-0.16,2.47,0.17,4.74,1.27,6.95c3.64,7.29,7.15,14.64,10.85,21.9c4.14,8.11,8.55,16.09,12.61,24.24
		c4.63,9.29,9.01,18.7,13.49,28.06c0.14,0.29,0.21,0.67,0.43,0.84c2.47,1.88,2.41,4.7,2.81,7.35c0.28,1.88,0.67,3.75,0.88,5.63
		c0.18,1.57,1.12,2.23,2.51,2.4c1.25,0.15,2.58,0.45,3.77,0.19c2.1-0.47,4.11-0.23,6.18,0.04c5.41,0.7,10.66,2.07,15.79,3.89
		c2.71,0.96,5.41,1.94,8.14,2.86c2.9,0.97,5.84,1.44,8.94,1.17c11.16-0.97,22.35-1.07,33.54-1c0.64,0,1.3,0.03,1.89-0.15
		c0.26-0.08,0.59-0.87,0.48-1.01c-0.79-0.99-1.66-1.93-2.55-2.83c-2.35-2.4-4.79-4.71-7.07-7.16c-2.63-2.83-4.75-6.03-6.3-9.58
		c-1.93-4.41-1.71-8.71,0.92-12.81c0.49-0.77,1.03-1.51,1.53-2.25c-2.6-1.67-5.08-3.14-7.41-4.79c-2.25-1.6-3.96-3.7-4.94-6.34
		c-0.84-2.26-0.25-3.92,1.99-4.51c2.3-0.6,4.7-1,7.07-1.15c4.3-0.28,8.62-0.31,12.94-0.46
		C659.86,772.22,662.49,772.08,665.58,771.56z M327.49,490.84c1.42,2.68,2.85,4.76,2.35,7.28c-0.49,2.49-1.08,4.97-1.83,7.4
		c-0.65,2.11-2.23,3.44-4.37,4.07c-1.68,0.5-3.38,0.97-5.04,1.53c-1.93,0.66-2.27,1.15-1.77,3.22c0.9,3.72,1.99,7.4,2.94,11.1
		c0.31,1.22,0.86,2.56,0.62,3.71c-0.5,2.4,0.28,4.42,1.21,6.46c1.99,4.34,4,8.68,6.08,12.98c0.33,0.68,0.98,1.27,1.61,1.71
		c5.52,3.87,11.25,7.34,17.9,8.88c2,0.46,4.2,1.01,6.12,0.62c5.64-1.13,11.17-2.71,15.78-6.47c4.11-3.36,7.66-7.23,10.82-11.47
		c5.25-7.04,10.47-14.1,15.77-21.1c1.01-1.34,1.6-2.7,1.6-4.37c0.01-6.72,0.88-13.37,1.78-20.02c0.4-3.01,0.72-6.02,1.1-9.03
		c0.25-1.99-0.11-3.75-1.37-5.39c-1.26-1.64-2.27-3.48-3.49-5.16c-0.92-1.26-1.99-2.41-2.99-3.61c-1.13,0.53-2.24,1.07-3.38,1.57
		c-0.43,0.19-0.92,0.27-1.37,0.42c-7.45,2.36-14.9,4.74-22.36,7.07c-1.82,0.57-3.68,1.22-5.56,1.39
		c-9.11,0.83-17.84,3.51-26.72,5.44C331.25,489.44,329.63,490.14,327.49,490.84z M304.07,478.54c2.03-0.55,4.19-1.31,5.57-3.14
		c1.67-2.21,3.96-3.27,6.44-3.84c2.4-0.56,4.48-1.64,6.51-2.93c4.05-2.57,8.09-5.15,12.14-7.71c8.91-5.63,17.83-11.26,26.74-16.9
		c0.27-0.17,0.54-0.35,0.78-0.56c0.6-0.53,0.54-1.17-0.03-1.6c-3.57-2.72-7.18-5.31-11.81-6.01c-2.2-0.33-4.36-0.98-6.52-1.52
		c-2.17-0.54-2.39-0.53-3.22,1.6c-2.76,7.11-6.76,13.41-12.2,18.75c-2.73,2.68-5.55,5.31-8.61,7.59
		c-5.41,4.02-10.24,8.68-15.23,13.16c-0.59,0.53-1.12,1.14-1.6,1.77c-0.14,0.18-0.11,0.64,0.03,0.83
		C303.23,478.25,303.6,478.32,304.07,478.54z M319.41,485.49c0.84-0.24,1.75-0.46,2.65-0.75c5-1.62,9.96-3.39,15.01-4.87
		c13.93-4.09,27.58-9.01,41.32-13.66c2.94-0.99,4.99-2.72,6.17-5.53c0.74-1.75,0.1-3.29-1.86-3.57c-1.73-0.24-2.79-1-3.82-2.29
		c-1.07-1.34-1.72-1.3-3.36-0.48c-3.85,1.92-7.76,3.75-11.53,5.81c-11.35,6.19-22.97,11.83-34.7,17.24
		c-3.17,1.46-6.1,3.45-9.12,5.23c-0.54,0.32-1.02,0.77-1.44,1.23c-0.15,0.16-0.16,0.58-0.06,0.82
		C318.76,484.93,319.06,485.12,319.41,485.49z M577.18,823.25c-0.88,1.21-1.68,2.18-2.34,3.25c-1.15,1.87-0.51,3.28,1.68,3.71
		c0.61,0.12,1.28,0.16,1.9,0.05c1.54-0.26,3.06-0.63,4.59-0.95c0.1-1.95-1.76-2.39-2.76-3.47
		C579.4,824.93,578.35,824.22,577.18,823.25z"/>
</g>
</svg>
