<?xml version="1.0" encoding="utf-8"?>
<!-- Generator: Adobe Illustrator 26.5.0, SVG Export Plug-In . SVG Version: 6.00 Build 0)  -->
<svg version="1.1" id="Layer_1" xmlns="http://www.w3.org/2000/svg" xmlns:xlink="http://www.w3.org/1999/xlink" x="0px" y="0px"
	 viewBox="0 0 279.22 255.16" style="enable-background:new 0 0 279.22 255.16;" xml:space="preserve">
<style type="text/css">
	.st0{fill:#491A0B;}
</style>
<g>
	<path class="st0" d="M88.77,124.21c-4.3,5.34-10,8.74-16.41,11.23c-4.05,1.57-7.64,4.03-10.69,7.16
		c-3.31,3.41-6.47,6.96-9.76,10.39c-1.16,1.2-2.5,2.24-3.77,3.32c-1.21,1.03-2.47,2.01-3.67,3.06c-0.27,0.24-0.41,0.68-0.53,1.05
		c-0.99,2.91-1.89,5.85-2.95,8.74c-1.15,3.11-4.55,5.54-7.87,5.43c-3.37-0.11-6.74-0.54-10.11-0.82c-0.44-0.04-0.92-0.15-1.31-0.02
		c-4.11,1.34-7.13-0.53-9.77-3.35c-1.86-1.98-2.89-4.43-3.77-7.01c-0.52-1.51-1.57-2.96-2.7-4.12c-2.21-2.27-3.94-4.86-4.52-7.89
		c-0.41-2.15-0.15-4.39-0.8-6.61c-0.43-1.45,0.29-3.06,1.51-4.24c0.3-0.3,0.6-0.69,0.7-1.1c1.2-4.72,4.08-8.64,6.08-12.97
		c3.29-7.15,6.03-14.53,8.13-22.12c0.74-2.68,1.65-5.39,1.84-8.13c0.28-4.01,0.25-8.09-0.17-12.09c-0.33-3.06-1.44-6.04-2.26-9.05
		c-0.49-1.77-1.16-3.49-1.59-5.27c-0.16-0.66-0.1-1.56,0.23-2.14c3.87-6.71,7.79-13.39,11.74-20.05c1.08-1.82,2.31-3.54,3.45-5.33
		c0.16-0.25,0.33-0.75,0.21-0.9c-1.91-2.26-2.48-5.16-3.69-7.75c-0.79-1.7-1.73-3.33-2.49-5.04c-1.54-3.42-2.43-7-2.58-10.77
		c-0.13-3.19-0.38-6.37-0.48-9.56c-0.03-1.01,0.2-2.05,0.45-3.05c0.22-0.92,1.34-1.21,2.14-0.57c0.52,0.42,1,0.93,1.38,1.48
		c2.53,3.72,5.44,7.05,9.22,9.59c1.42,0.95,2.66,2.16,3.98,3.25c3.01,2.48,6.02,4.97,9.05,7.43c0.26,0.21,0.63,0.43,0.95,0.42
		c2.38-0.03,4.4-0.7,6.22-2.48c1.89-1.85,1.39-3.99,1.55-6.1c0.27-3.69-0.7-7.22-1.59-10.74c-0.46-1.84-1.25-3.6-1.85-5.4
		c-0.19-0.57-0.26-1.17-0.39-1.76c0.72-0.11,1.53-0.48,2.15-0.28c3.52,1.12,6.91,2.57,9.63,5.16c3.35,3.19,6.68,6.42,9.9,9.74
		c1.9,1.96,3.03,4.37,3.39,7.14c0.05,0.39,0.66,1.01,1.01,1c1.12-0.01,2.25-0.2,3.35-0.44c1.01-0.21,1.98-0.61,2.98-0.85
		c5.39-1.31,10.46-3.42,15.27-6.18c8.42-4.84,17.52-7.16,27.21-7.43c2.54-0.07,5.06-0.69,7.6-0.92c8.04-0.75,15.96-0.29,23.54,2.77
		c1.31,0.53,2.51,1.33,3.74,2.05c0.19,0.11,0.26,0.44,0.38,0.66c-0.22,0.05-0.44,0.16-0.66,0.15c-1.99-0.11-3.98-0.21-5.96-0.36
		c-7.57-0.59-14.75,0.83-21.63,3.93c0.01,0.12,0.02,0.23,0.02,0.35c3.1-0.13,6.2-0.17,9.29-0.41c6.32-0.5,12.62-1.19,18.94-1.66
		c4.89-0.36,9.8-0.65,14.7-0.66c2.85,0,5.72,0.46,8.53,0.98c9.2,1.68,18.11,4.52,27.04,7.21c4.27,1.29,8.43,2.99,12.59,4.63
		c1.3,0.51,2.43,1.43,3.58,2.43c-14.83-1.38-29.48-0.25-44.1,1.92c6.72,0.05,13.36,0.94,19.9,2.32c7.32,1.54,14.71,2.93,21.51,6.39
		c2.38,1.21,5.19,1.55,7.74,2.46c3.45,1.23,6.85,2.63,10.27,3.95c3.61,1.39,7.23,2.75,10.85,4.13c1.27,0.48,1.54,0.92,0.91,1.76
		c-0.25,0.33-1.02,0.46-1.5,0.38c-4.25-0.71-8.48-1.52-12.73-2.23c-4.89-0.82-9.78-0.44-14.65,0.27c-0.87,0.13-1.73,0.23-2.9,0.39
		c0.54,0.43,0.88,0.72,1.24,0.99c5.43,4.16,11.71,6.45,18.18,8.36c4.21,1.24,8.47,2.35,12.58,3.87c5.34,1.97,10.56,4.27,15.82,6.46
		c0.73,0.3,1.4,0.77,2.09,1.17c0.75,0.43,0.89,0.99,0.54,1.81c-0.31,0.75-0.66,0.91-1.45,0.73c-2.95-0.67-5.91-1.41-8.9-1.83
		c-1.62-0.22-3.31,0.16-4.98,0.27c-2.59,0.17-5.17,0.42-7.76,0.46c-2.11,0.04-3.98,0.7-5.83,1.61c-0.68,0.33-0.73,0.68-0.14,1.1
		c0.52,0.36,1.05,0.78,1.64,0.98c5.59,1.89,10.67,4.87,15.98,7.36c4.42,2.08,8.81,4.35,13.74,5.13c0.35,0.06,0.72,0.16,1.02,0.34
		c0.62,0.38,1.66,0.77,1.71,1.24c0.15,1.43-0.68,2.4-1.95,2.7c-1.94,0.46-3.91,0.82-5.84,1.31c-6.65,1.66-12.67,4.78-18.58,8.15
		c-1.53,0.87-3.12,1.7-4.44,2.84c-2.29,1.97-4.42,4.12-6.57,6.26c-2.57,2.56-5.08,5.18-7.6,7.79c-0.17,0.18-0.3,0.47-0.31,0.72
		c-0.27,7.94-2.67,15.41-5.33,22.77c-2.35,6.49-4.82,12.95-7.52,19.3c-3.37,7.93-8.62,14.69-14.39,20.96
		c-12.6,13.68-25.77,26.8-40.24,38.52c-9.24,7.48-19.12,14.05-29.35,20.1c-4.4,2.6-8.68,5.48-13.33,7.55
		c-4.79,2.13-9.94,3.45-14.95,5.04c-0.34,0.11-1.1-0.36-1.33-0.76c-1.35-2.34-2.58-4.75-3.89-7.11c-4.35-7.87-6.47-16.36-7.22-25.27
		c-0.73-8.66,1-17.01,3.04-25.33c1.79-7.29,3.74-14.55,5.41-21.86c1.53-6.7,1.02-13.4-0.6-20.05c-1.84-7.53-5.02-14.56-7.95-21.69
		c-1.04-2.52-2.63-4.64-4.8-6.33C90.5,125.99,89.67,125.07,88.77,124.21z"/>
</g>
</svg>
